<svg width="30" height="30" viewBox="0 0 30 30" fill="none" xmlns="http://www.w3.org/2000/svg">
<path d="M16.9716 22.7637L25 15.0394L16.9716 7.31517C16.8991 7.22404 16.807 7.14888 16.7015 7.09478C16.596 7.04069 16.4796 7.00892 16.3601 7.00162C16.2407 6.99433 16.121 7.01168 16.0092 7.05251C15.8974 7.09333 15.796 7.15668 15.712 7.23825C15.628 7.31983 15.5633 7.41773 15.5222 7.52533C15.4812 7.63293 15.4647 7.74772 15.4741 7.86192C15.4834 7.97612 15.5182 8.08707 15.5763 8.18726C15.6343 8.28745 15.7141 8.37454 15.8104 8.44263L21.817 14.2398L5.83542 14.2398C5.61386 14.2398 5.40136 14.3241 5.24469 14.474C5.08802 14.624 5 14.8273 5 15.0394C5 15.2515 5.08802 15.4549 5.24469 15.6048C5.40136 15.7548 5.61385 15.839 5.83542 15.839L21.817 15.839L15.8104 21.6362C15.6542 21.7868 15.5668 21.9906 15.5676 22.2028C15.5684 22.415 15.6572 22.6182 15.8145 22.7677C15.9718 22.9172 16.1848 23.0007 16.4065 23C16.6282 22.9992 16.8405 22.9142 16.9967 22.7637L16.9716 22.7637Z" fill="#08071B"/>
</svg>
