<svg width="31" height="30" viewBox="0 0 31 30" fill="none" xmlns="http://www.w3.org/2000/svg">
<path d="M17.4917 23.05L25.5 15L17.4917 6.94999C17.4193 6.85501 17.3275 6.77668 17.2222 6.7203C17.117 6.66392 17.0009 6.63081 16.8817 6.62321C16.7626 6.61561 16.6432 6.6337 16.5317 6.67624C16.4201 6.71879 16.319 6.78481 16.2352 6.86982C16.1514 6.95484 16.0869 7.05687 16.0459 7.16901C16.005 7.28114 15.9886 7.40077 15.9979 7.51979C16.0072 7.63881 16.0419 7.75444 16.0998 7.85885C16.1577 7.96326 16.2373 8.05402 16.3333 8.12499L22.325 14.1667L6.38333 14.1667C6.16232 14.1667 5.95036 14.2544 5.79408 14.4107C5.6378 14.567 5.55 14.779 5.55 15C5.55 15.221 5.6378 15.433 5.79408 15.5892C5.95036 15.7455 6.16232 15.8333 6.38333 15.8333L22.325 15.8333L16.3333 21.875C16.1775 22.0319 16.0904 22.2443 16.0912 22.4654C16.092 22.6866 16.1806 22.8983 16.3375 23.0542C16.4944 23.21 16.7068 23.2971 16.9279 23.2963C17.1491 23.2955 17.3609 23.2069 17.5167 23.05L17.4917 23.05Z" fill="white"/>
</svg>
