<svg width="80" height="80" viewBox="0 0 80 80" fill="none" xmlns="http://www.w3.org/2000/svg">
<rect width="80" height="80" rx="40" fill="white"/>
<g clip-path="url(#clip0_657_10554)">
<path d="M55.5864 40.3352C55.7325 40.2501 55.8537 40.1282 55.9379 39.9817C56.0221 39.8351 56.0664 39.669 56.0664 39.5C56.0664 39.331 56.0221 39.1649 55.9379 39.0184C55.8537 38.8718 55.7325 38.7499 55.5864 38.6648L32.3865 25.1315C32.2395 25.0458 32.0726 25.0003 31.9025 24.9997C31.7324 24.9992 31.5652 25.0435 31.4177 25.1282C31.2702 25.2129 31.1477 25.3351 31.0625 25.4823C30.9774 25.6295 30.9325 25.7966 30.9326 25.9667L30.9326 53.0333C30.9325 53.2034 30.9774 53.3705 31.0625 53.5177C31.1477 53.665 31.2702 53.7871 31.4177 53.8718C31.5652 53.9566 31.7324 54.0009 31.9025 54.0003C32.0726 53.9997 32.2395 53.9543 32.3865 53.8685L55.5864 40.3352Z" fill="#EE5622"/>
</g>
<defs>
<clipPath id="clip0_657_10554">
<rect width="29" height="29" fill="white" transform="translate(58 25) rotate(90)"/>
</clipPath>
</defs>
</svg>
